# MagicaVoxel @ ephtracy

# material
mtllib bati.mtl
usemtl palette

# normals
vn -1 0 0
vn 1 0 0
vn 0 0 1
vn 0 0 -1
vn 0 -1 0
vn 0 1 0

# texcoords
vt 0.587891 0.5
vt 0.728516 0.5
vt 0.958984 0.5

# verts
v -10 0 11
v -10 0 10
v -10 0 3
v -10 0 -2
v -10 0 -10
v -10 0 -11
v -10 6 3
v -10 6 -2
v -10 8 9
v -10 8 6
v -10 8 4
v -10 8 1
v -10 8 -1
v -10 8 -4
v -10 8 -6
v -10 8 -9
v -10 13 9
v -10 13 6
v -10 13 4
v -10 13 1
v -10 13 -1
v -10 13 -4
v -10 13 -6
v -10 13 -9
v -10 15 9
v -10 15 6
v -10 15 4
v -10 15 1
v -10 15 -1
v -10 15 -4
v -10 15 -6
v -10 15 -9
v -10 20 9
v -10 20 6
v -10 20 4
v -10 20 1
v -10 20 -1
v -10 20 -4
v -10 20 -6
v -10 20 -9
v -10 22 9
v -10 22 6
v -10 22 4
v -10 22 1
v -10 22 -1
v -10 22 -4
v -10 22 -6
v -10 22 -9
v -10 27 9
v -10 27 6
v -10 27 4
v -10 27 1
v -10 27 -1
v -10 27 -4
v -10 27 -6
v -10 27 -9
v -10 29 9
v -10 29 6
v -10 29 4
v -10 29 1
v -10 29 -1
v -10 29 -4
v -10 29 -6
v -10 29 -9
v -10 34 9
v -10 34 6
v -10 34 4
v -10 34 1
v -10 34 -1
v -10 34 -4
v -10 34 -6
v -10 34 -9
v -10 37 11
v -10 37 10
v -10 37 -10
v -10 37 -11
v -9 0 3
v -9 0 -2
v -9 6 3
v -9 6 -2
v -9 8 9
v -9 8 6
v -9 8 4
v -9 8 1
v -9 8 -1
v -9 8 -4
v -9 8 -6
v -9 8 -9
v -9 13 9
v -9 13 6
v -9 13 4
v -9 13 1
v -9 13 -1
v -9 13 -4
v -9 13 -6
v -9 13 -9
v -9 15 9
v -9 15 6
v -9 15 4
v -9 15 1
v -9 15 -1
v -9 15 -4
v -9 15 -6
v -9 15 -9
v -9 20 9
v -9 20 6
v -9 20 4
v -9 20 1
v -9 20 -1
v -9 20 -4
v -9 20 -6
v -9 20 -9
v -9 22 9
v -9 22 6
v -9 22 4
v -9 22 1
v -9 22 -1
v -9 22 -4
v -9 22 -6
v -9 22 -9
v -9 27 9
v -9 27 6
v -9 27 4
v -9 27 1
v -9 27 -1
v -9 27 -4
v -9 27 -6
v -9 27 -9
v -9 29 9
v -9 29 6
v -9 29 4
v -9 29 1
v -9 29 -1
v -9 29 -4
v -9 29 -6
v -9 29 -9
v -9 34 9
v -9 34 6
v -9 34 4
v -9 34 1
v -9 34 -1
v -9 34 -4
v -9 34 -6
v -9 34 -9
v -9 37 11
v -9 37 10
v -9 37 -8
v -9 37 -10
v -9 37 -11
v -9 38 11
v -9 38 10
v -9 38 -8
v -9 38 -10
v -9 38 -11
v -8 38 11
v -8 38 10
v -8 38 -8
v -8 38 -10
v -8 38 -11
v -8 39 11
v -8 39 10
v -8 39 -10
v -8 39 -11
v -7 39 8
v -7 39 -8
v -7 40 8
v -7 40 -8
v 7 39 8
v 7 39 -8
v 7 40 8
v 7 40 -8
v 8 38 11
v 8 38 10
v 8 38 -10
v 8 38 -11
v 8 39 11
v 8 39 10
v 8 39 -10
v 8 39 -11
v 9 37 11
v 9 37 10
v 9 37 -5
v 9 37 -7
v 9 37 -10
v 9 37 -11
v 9 38 11
v 9 38 10
v 9 38 -10
v 9 38 -11
v 10 0 11
v 10 0 10
v 10 0 -10
v 10 0 -11
v 10 36 -5
v 10 36 -7
v 10 37 11
v 10 37 10
v 10 37 -5
v 10 37 -7
v 10 37 -10
v 10 37 -11
v -10 0 11
v -10 37 11
v -9 37 11
v -9 38 11
v -8 38 11
v -8 39 11
v 8 38 11
v 8 39 11
v 9 37 11
v 9 38 11
v 10 0 11
v 10 37 11
v -7 39 8
v -7 40 8
v 7 39 8
v 7 40 8
v -10 8 6
v -10 13 6
v -10 15 6
v -10 20 6
v -10 22 6
v -10 27 6
v -10 29 6
v -10 34 6
v -9 8 6
v -9 13 6
v -9 15 6
v -9 20 6
v -9 22 6
v -9 27 6
v -9 29 6
v -9 34 6
v -10 8 1
v -10 13 1
v -10 15 1
v -10 20 1
v -10 22 1
v -10 27 1
v -10 29 1
v -10 34 1
v -9 8 1
v -9 13 1
v -9 15 1
v -9 20 1
v -9 22 1
v -9 27 1
v -9 29 1
v -9 34 1
v -10 0 -2
v -10 6 -2
v -9 0 -2
v -9 6 -2
v -10 8 -4
v -10 13 -4
v -10 15 -4
v -10 20 -4
v -10 22 -4
v -10 27 -4
v -10 29 -4
v -10 34 -4
v -9 8 -4
v -9 13 -4
v -9 15 -4
v -9 20 -4
v -9 22 -4
v -9 27 -4
v -9 29 -4
v -9 34 -4
v -10 8 -9
v -10 13 -9
v -10 15 -9
v -10 20 -9
v -10 22 -9
v -10 27 -9
v -10 29 -9
v -10 34 -9
v -9 8 -9
v -9 13 -9
v -9 15 -9
v -9 20 -9
v -9 22 -9
v -9 27 -9
v -9 29 -9
v -9 34 -9
v -10 8 9
v -10 13 9
v -10 15 9
v -10 20 9
v -10 22 9
v -10 27 9
v -10 29 9
v -10 34 9
v -9 8 9
v -9 13 9
v -9 15 9
v -9 20 9
v -9 22 9
v -9 27 9
v -9 29 9
v -9 34 9
v -10 8 4
v -10 13 4
v -10 15 4
v -10 20 4
v -10 22 4
v -10 27 4
v -10 29 4
v -10 34 4
v -9 8 4
v -9 13 4
v -9 15 4
v -9 20 4
v -9 22 4
v -9 27 4
v -9 29 4
v -9 34 4
v -10 0 3
v -10 6 3
v -9 0 3
v -9 6 3
v -10 8 -1
v -10 13 -1
v -10 15 -1
v -10 20 -1
v -10 22 -1
v -10 27 -1
v -10 29 -1
v -10 34 -1
v -9 8 -1
v -9 13 -1
v -9 15 -1
v -9 20 -1
v -9 22 -1
v -9 27 -1
v -9 29 -1
v -9 34 -1
v -10 8 -6
v -10 13 -6
v -10 15 -6
v -10 20 -6
v -10 22 -6
v -10 27 -6
v -10 29 -6
v -10 34 -6
v -9 8 -6
v -9 13 -6
v -9 15 -6
v -9 20 -6
v -9 22 -6
v -9 27 -6
v -9 29 -6
v -9 34 -6
v -7 39 -8
v -7 40 -8
v 7 39 -8
v 7 40 -8
v -10 0 -11
v -10 37 -11
v -9 37 -11
v -9 38 -11
v -8 38 -11
v -8 39 -11
v 8 38 -11
v 8 39 -11
v 9 37 -11
v 9 38 -11
v 10 0 -11
v 10 37 -11
v -10 0 11
v 10 0 11
v -10 0 10
v 10 0 10
v -10 0 3
v -9 0 3
v -10 0 -2
v -9 0 -2
v -10 0 -10
v 10 0 -10
v -10 0 -11
v 10 0 -11
v -10 6 3
v -9 6 3
v -10 6 -2
v -9 6 -2
v -10 13 9
v -9 13 9
v -10 13 6
v -9 13 6
v -10 13 4
v -9 13 4
v -10 13 1
v -9 13 1
v -10 13 -1
v -9 13 -1
v -10 13 -4
v -9 13 -4
v -10 13 -6
v -9 13 -6
v -10 13 -9
v -9 13 -9
v -10 20 9
v -9 20 9
v -10 20 6
v -9 20 6
v -10 20 4
v -9 20 4
v -10 20 1
v -9 20 1
v -10 20 -1
v -9 20 -1
v -10 20 -4
v -9 20 -4
v -10 20 -6
v -9 20 -6
v -10 20 -9
v -9 20 -9
v -10 27 9
v -9 27 9
v -10 27 6
v -9 27 6
v -10 27 4
v -9 27 4
v -10 27 1
v -9 27 1
v -10 27 -1
v -9 27 -1
v -10 27 -4
v -9 27 -4
v -10 27 -6
v -9 27 -6
v -10 27 -9
v -9 27 -9
v -10 34 9
v -9 34 9
v -10 34 6
v -9 34 6
v -10 34 4
v -9 34 4
v -10 34 1
v -9 34 1
v -10 34 -1
v -9 34 -1
v -10 34 -4
v -9 34 -4
v -10 34 -6
v -9 34 -6
v -10 34 -9
v -9 34 -9
v -10 8 9
v -9 8 9
v -10 8 6
v -9 8 6
v -10 8 4
v -9 8 4
v -10 8 1
v -9 8 1
v -10 8 -1
v -9 8 -1
v -10 8 -4
v -9 8 -4
v -10 8 -6
v -9 8 -6
v -10 8 -9
v -9 8 -9
v -10 15 9
v -9 15 9
v -10 15 6
v -9 15 6
v -10 15 4
v -9 15 4
v -10 15 1
v -9 15 1
v -10 15 -1
v -9 15 -1
v -10 15 -4
v -9 15 -4
v -10 15 -6
v -9 15 -6
v -10 15 -9
v -9 15 -9
v -10 22 9
v -9 22 9
v -10 22 6
v -9 22 6
v -10 22 4
v -9 22 4
v -10 22 1
v -9 22 1
v -10 22 -1
v -9 22 -1
v -10 22 -4
v -9 22 -4
v -10 22 -6
v -9 22 -6
v -10 22 -9
v -9 22 -9
v -10 29 9
v -9 29 9
v -10 29 6
v -9 29 6
v -10 29 4
v -9 29 4
v -10 29 1
v -9 29 1
v -10 29 -1
v -9 29 -1
v -10 29 -4
v -9 29 -4
v -10 29 -6
v -9 29 -6
v -10 29 -9
v -9 29 -9
v -10 37 11
v -9 37 11
v 9 37 11
v 10 37 11
v -10 37 10
v -9 37 10
v 9 37 10
v 10 37 10
v 9 37 -5
v 10 37 -5
v 9 37 -7
v 10 37 -7
v -9 37 -8
v -10 37 -10
v -9 37 -10
v 9 37 -10
v 10 37 -10
v -10 37 -11
v -9 37 -11
v 9 37 -11
v 10 37 -11
v -9 38 11
v -8 38 11
v 8 38 11
v 9 38 11
v -9 38 10
v -8 38 10
v 8 38 10
v 9 38 10
v -9 38 -8
v -8 38 -8
v -9 38 -10
v -8 38 -10
v 8 38 -10
v 9 38 -10
v -9 38 -11
v -8 38 -11
v 8 38 -11
v 9 38 -11
v -8 39 11
v 8 39 11
v -8 39 10
v 8 39 10
v -7 39 8
v 7 39 8
v -7 39 -8
v 7 39 -8
v 2 39 -9
v 3 39 -9
v -8 39 -10
v 2 39 -10
v 3 39 -10
v 8 39 -10
v -8 39 -11
v 8 39 -11
v -7 40 8
v 7 40 8
v -7 40 -8
v 7 40 -8

# faces
f 7/1/1 3/1/1 2/1/1
f 8/1/1 5/1/1 4/1/1
f 9/1/1 7/1/1 2/1/1
f 9/1/1 8/1/1 7/1/1
f 10/1/1 8/1/1 9/1/1
f 11/1/1 8/1/1 10/1/1
f 12/1/1 8/1/1 11/1/1
f 13/1/1 8/1/1 12/1/1
f 14/1/1 5/1/1 8/1/1
f 14/1/1 8/1/1 13/1/1
f 15/1/1 5/1/1 14/1/1
f 16/1/1 5/1/1 15/1/1
f 17/1/1 9/1/1 2/1/1
f 18/1/1 11/1/1 10/1/1
f 19/1/1 11/1/1 18/1/1
f 20/1/1 13/1/1 12/1/1
f 21/1/1 13/1/1 20/1/1
f 22/1/1 15/1/1 14/1/1
f 23/1/1 15/1/1 22/1/1
f 24/1/1 5/1/1 16/1/1
f 25/1/1 19/1/1 18/1/1
f 25/1/1 24/1/1 23/1/1
f 25/1/1 23/1/1 22/1/1
f 25/1/1 21/1/1 20/1/1
f 25/1/1 22/1/1 21/1/1
f 25/1/1 17/1/1 2/1/1
f 25/1/1 20/1/1 19/1/1
f 25/1/1 18/1/1 17/1/1
f 26/1/1 24/1/1 25/1/1
f 27/1/1 24/1/1 26/1/1
f 28/1/1 24/1/1 27/1/1
f 29/1/1 24/1/1 28/1/1
f 30/1/1 24/1/1 29/1/1
f 31/1/1 24/1/1 30/1/1
f 32/1/1 5/1/1 24/1/1
f 32/1/1 24/1/1 31/1/1
f 33/1/1 25/1/1 2/1/1
f 34/1/1 27/1/1 26/1/1
f 35/1/1 27/1/1 34/1/1
f 36/1/1 29/1/1 28/1/1
f 37/1/1 29/1/1 36/1/1
f 38/1/1 31/1/1 30/1/1
f 39/1/1 31/1/1 38/1/1
f 40/1/1 5/1/1 32/1/1
f 41/1/1 37/1/1 36/1/1
f 41/1/1 40/1/1 39/1/1
f 41/1/1 39/1/1 38/1/1
f 41/1/1 35/1/1 34/1/1
f 41/1/1 38/1/1 37/1/1
f 41/1/1 33/1/1 2/1/1
f 41/1/1 36/1/1 35/1/1
f 41/1/1 34/1/1 33/1/1
f 42/1/1 40/1/1 41/1/1
f 43/1/1 40/1/1 42/1/1
f 44/1/1 40/1/1 43/1/1
f 45/1/1 40/1/1 44/1/1
f 46/1/1 40/1/1 45/1/1
f 47/1/1 40/1/1 46/1/1
f 48/1/1 5/1/1 40/1/1
f 48/1/1 40/1/1 47/1/1
f 49/1/1 41/1/1 2/1/1
f 50/1/1 43/1/1 42/1/1
f 51/1/1 43/1/1 50/1/1
f 52/1/1 45/1/1 44/1/1
f 53/1/1 45/1/1 52/1/1
f 54/1/1 47/1/1 46/1/1
f 55/1/1 47/1/1 54/1/1
f 56/1/1 5/1/1 48/1/1
f 57/1/1 53/1/1 52/1/1
f 57/1/1 56/1/1 55/1/1
f 57/1/1 55/1/1 54/1/1
f 57/1/1 51/1/1 50/1/1
f 57/1/1 54/1/1 53/1/1
f 57/1/1 49/1/1 2/1/1
f 57/1/1 52/1/1 51/1/1
f 57/1/1 50/1/1 49/1/1
f 58/1/1 56/1/1 57/1/1
f 59/1/1 56/1/1 58/1/1
f 60/1/1 56/1/1 59/1/1
f 61/1/1 56/1/1 60/1/1
f 62/1/1 56/1/1 61/1/1
f 63/1/1 56/1/1 62/1/1
f 64/1/1 5/1/1 56/1/1
f 64/1/1 56/1/1 63/1/1
f 65/1/1 57/1/1 2/1/1
f 66/1/1 59/1/1 58/1/1
f 67/1/1 59/1/1 66/1/1
f 68/1/1 61/1/1 60/1/1
f 69/1/1 61/1/1 68/1/1
f 70/1/1 63/1/1 62/1/1
f 71/1/1 63/1/1 70/1/1
f 72/1/1 5/1/1 64/1/1
f 73/3/1 2/3/1 1/3/1
f 74/1/1 72/1/1 71/1/1
f 74/3/1 2/3/1 73/3/1
f 74/1/1 69/1/1 68/1/1
f 74/1/1 71/1/1 70/1/1
f 74/1/1 67/1/1 66/1/1
f 74/1/1 70/1/1 69/1/1
f 74/1/1 65/1/1 2/1/1
f 74/1/1 68/1/1 67/1/1
f 74/1/1 66/1/1 65/1/1
f 75/3/1 6/3/1 5/3/1
f 75/1/1 72/1/1 74/1/1
f 75/1/1 5/1/1 72/1/1
f 76/3/1 6/3/1 75/3/1
f 79/1/1 78/1/1 77/1/1
f 80/1/1 78/1/1 79/1/1
f 89/1/1 82/1/1 81/1/1
f 90/1/1 82/1/1 89/1/1
f 91/1/1 84/1/1 83/1/1
f 92/1/1 84/1/1 91/1/1
f 93/1/1 86/1/1 85/1/1
f 94/1/1 86/1/1 93/1/1
f 95/1/1 88/1/1 87/1/1
f 96/1/1 88/1/1 95/1/1
f 105/1/1 98/1/1 97/1/1
f 106/1/1 98/1/1 105/1/1
f 107/1/1 100/1/1 99/1/1
f 108/1/1 100/1/1 107/1/1
f 109/1/1 102/1/1 101/1/1
f 110/1/1 102/1/1 109/1/1
f 111/1/1 104/1/1 103/1/1
f 112/1/1 104/1/1 111/1/1
f 121/1/1 114/1/1 113/1/1
f 122/1/1 114/1/1 121/1/1
f 123/1/1 116/1/1 115/1/1
f 124/1/1 116/1/1 123/1/1
f 125/1/1 118/1/1 117/1/1
f 126/1/1 118/1/1 125/1/1
f 127/1/1 120/1/1 119/1/1
f 128/1/1 120/1/1 127/1/1
f 137/1/1 130/1/1 129/1/1
f 138/1/1 130/1/1 137/1/1
f 139/1/1 132/1/1 131/1/1
f 140/1/1 132/1/1 139/1/1
f 141/1/1 134/1/1 133/1/1
f 142/1/1 134/1/1 141/1/1
f 143/1/1 136/1/1 135/1/1
f 144/1/1 136/1/1 143/1/1
f 150/3/1 146/3/1 145/3/1
f 151/1/1 147/1/1 146/1/1
f 151/3/1 146/3/1 150/3/1
f 152/2/1 148/2/1 147/2/1
f 152/1/1 147/1/1 151/1/1
f 153/3/1 149/3/1 148/3/1
f 153/2/1 148/2/1 152/2/1
f 154/3/1 149/3/1 153/3/1
f 160/3/1 156/3/1 155/3/1
f 161/1/1 157/1/1 156/1/1
f 161/3/1 156/3/1 160/3/1
f 161/1/1 158/1/1 157/1/1
f 162/3/1 159/3/1 158/3/1
f 162/1/1 158/1/1 161/1/1
f 163/3/1 159/3/1 162/3/1
f 166/1/1 165/1/1 164/1/1
f 167/1/1 165/1/1 166/1/1
f 168/1/2 169/1/2 170/1/2
f 170/1/2 169/1/2 171/1/2
f 172/3/2 173/3/2 176/3/2
f 173/1/2 174/1/2 177/1/2
f 176/3/2 173/3/2 177/3/2
f 174/3/2 175/3/2 178/3/2
f 177/1/2 174/1/2 178/1/2
f 178/3/2 175/3/2 179/3/2
f 180/3/2 181/3/2 186/3/2
f 181/1/2 182/1/2 187/1/2
f 186/3/2 181/3/2 187/3/2
f 182/1/2 183/1/2 187/1/2
f 183/1/2 184/1/2 187/1/2
f 184/3/2 185/3/2 188/3/2
f 187/1/2 184/1/2 188/1/2
f 188/3/2 185/3/2 189/3/2
f 191/1/2 192/1/2 194/1/2
f 194/1/2 192/1/2 195/1/2
f 190/3/2 191/3/2 196/3/2
f 191/1/2 194/1/2 197/1/2
f 196/3/2 191/3/2 197/3/2
f 194/2/2 195/2/2 198/2/2
f 197/1/2 194/1/2 198/1/2
f 195/1/2 192/1/2 199/1/2
f 198/2/2 195/2/2 199/2/2
f 192/3/2 193/3/2 200/3/2
f 199/1/2 192/1/2 200/1/2
f 200/3/2 193/3/2 201/3/2
f 204/3/3 203/3/3 202/3/3
f 206/3/3 205/3/3 204/3/3
f 208/3/3 206/3/3 204/3/3
f 208/3/3 207/3/3 206/3/3
f 209/3/3 207/3/3 208/3/3
f 210/3/3 204/3/3 202/3/3
f 210/3/3 208/3/3 204/3/3
f 211/3/3 208/3/3 210/3/3
f 212/3/3 210/3/3 202/3/3
f 213/3/3 210/3/3 212/3/3
f 216/1/3 215/1/3 214/1/3
f 217/1/3 215/1/3 216/1/3
f 226/1/3 219/1/3 218/1/3
f 227/1/3 219/1/3 226/1/3
f 228/1/3 221/1/3 220/1/3
f 229/1/3 221/1/3 228/1/3
f 230/1/3 223/1/3 222/1/3
f 231/1/3 223/1/3 230/1/3
f 232/1/3 225/1/3 224/1/3
f 233/1/3 225/1/3 232/1/3
f 242/1/3 235/1/3 234/1/3
f 243/1/3 235/1/3 242/1/3
f 244/1/3 237/1/3 236/1/3
f 245/1/3 237/1/3 244/1/3
f 246/1/3 239/1/3 238/1/3
f 247/1/3 239/1/3 246/1/3
f 248/1/3 241/1/3 240/1/3
f 249/1/3 241/1/3 248/1/3
f 252/1/3 251/1/3 250/1/3
f 253/1/3 251/1/3 252/1/3
f 262/1/3 255/1/3 254/1/3
f 263/1/3 255/1/3 262/1/3
f 264/1/3 257/1/3 256/1/3
f 265/1/3 257/1/3 264/1/3
f 266/1/3 259/1/3 258/1/3
f 267/1/3 259/1/3 266/1/3
f 268/1/3 261/1/3 260/1/3
f 269/1/3 261/1/3 268/1/3
f 278/1/3 271/1/3 270/1/3
f 279/1/3 271/1/3 278/1/3
f 280/1/3 273/1/3 272/1/3
f 281/1/3 273/1/3 280/1/3
f 282/1/3 275/1/3 274/1/3
f 283/1/3 275/1/3 282/1/3
f 284/1/3 277/1/3 276/1/3
f 285/1/3 277/1/3 284/1/3
f 286/1/4 287/1/4 294/1/4
f 294/1/4 287/1/4 295/1/4
f 288/1/4 289/1/4 296/1/4
f 296/1/4 289/1/4 297/1/4
f 290/1/4 291/1/4 298/1/4
f 298/1/4 291/1/4 299/1/4
f 292/1/4 293/1/4 300/1/4
f 300/1/4 293/1/4 301/1/4
f 302/1/4 303/1/4 310/1/4
f 310/1/4 303/1/4 311/1/4
f 304/1/4 305/1/4 312/1/4
f 312/1/4 305/1/4 313/1/4
f 306/1/4 307/1/4 314/1/4
f 314/1/4 307/1/4 315/1/4
f 308/1/4 309/1/4 316/1/4
f 316/1/4 309/1/4 317/1/4
f 318/1/4 319/1/4 320/1/4
f 320/1/4 319/1/4 321/1/4
f 322/1/4 323/1/4 330/1/4
f 330/1/4 323/1/4 331/1/4
f 324/1/4 325/1/4 332/1/4
f 332/1/4 325/1/4 333/1/4
f 326/1/4 327/1/4 334/1/4
f 334/1/4 327/1/4 335/1/4
f 328/1/4 329/1/4 336/1/4
f 336/1/4 329/1/4 337/1/4
f 338/1/4 339/1/4 346/1/4
f 346/1/4 339/1/4 347/1/4
f 340/1/4 341/1/4 348/1/4
f 348/1/4 341/1/4 349/1/4
f 342/1/4 343/1/4 350/1/4
f 350/1/4 343/1/4 351/1/4
f 344/1/4 345/1/4 352/1/4
f 352/1/4 345/1/4 353/1/4
f 354/1/4 355/1/4 356/1/4
f 356/1/4 355/1/4 357/1/4
f 358/3/4 359/3/4 360/3/4
f 360/3/4 361/3/4 362/3/4
f 360/3/4 362/3/4 364/3/4
f 362/3/4 363/3/4 364/3/4
f 364/3/4 363/3/4 365/3/4
f 358/3/4 360/3/4 366/3/4
f 360/3/4 364/3/4 366/3/4
f 366/3/4 364/3/4 367/3/4
f 358/3/4 366/3/4 368/3/4
f 368/3/4 366/3/4 369/3/4
f 372/3/5 371/3/5 370/3/5
f 373/3/5 371/3/5 372/3/5
f 374/1/5 373/1/5 372/1/5
f 375/1/5 373/1/5 374/1/5
f 377/1/5 373/1/5 375/1/5
f 378/1/5 377/1/5 376/1/5
f 379/1/5 373/1/5 377/1/5
f 379/1/5 377/1/5 378/1/5
f 380/3/5 379/3/5 378/3/5
f 381/3/5 379/3/5 380/3/5
f 384/1/5 383/1/5 382/1/5
f 385/1/5 383/1/5 384/1/5
f 388/1/5 387/1/5 386/1/5
f 389/1/5 387/1/5 388/1/5
f 392/1/5 391/1/5 390/1/5
f 393/1/5 391/1/5 392/1/5
f 396/1/5 395/1/5 394/1/5
f 397/1/5 395/1/5 396/1/5
f 400/1/5 399/1/5 398/1/5
f 401/1/5 399/1/5 400/1/5
f 404/1/5 403/1/5 402/1/5
f 405/1/5 403/1/5 404/1/5
f 408/1/5 407/1/5 406/1/5
f 409/1/5 407/1/5 408/1/5
f 412/1/5 411/1/5 410/1/5
f 413/1/5 411/1/5 412/1/5
f 416/1/5 415/1/5 414/1/5
f 417/1/5 415/1/5 416/1/5
f 420/1/5 419/1/5 418/1/5
f 421/1/5 419/1/5 420/1/5
f 424/1/5 423/1/5 422/1/5
f 425/1/5 423/1/5 424/1/5
f 428/1/5 427/1/5 426/1/5
f 429/1/5 427/1/5 428/1/5
f 432/1/5 431/1/5 430/1/5
f 433/1/5 431/1/5 432/1/5
f 436/1/5 435/1/5 434/1/5
f 437/1/5 435/1/5 436/1/5
f 440/1/5 439/1/5 438/1/5
f 441/1/5 439/1/5 440/1/5
f 444/1/5 443/1/5 442/1/5
f 445/1/5 443/1/5 444/1/5
f 448/1/5 447/1/5 446/1/5
f 449/1/5 447/1/5 448/1/5
f 450/1/6 451/1/6 452/1/6
f 452/1/6 451/1/6 453/1/6
f 454/1/6 455/1/6 456/1/6
f 456/1/6 455/1/6 457/1/6
f 458/1/6 459/1/6 460/1/6
f 460/1/6 459/1/6 461/1/6
f 462/1/6 463/1/6 464/1/6
f 464/1/6 463/1/6 465/1/6
f 466/1/6 467/1/6 468/1/6
f 468/1/6 467/1/6 469/1/6
f 470/1/6 471/1/6 472/1/6
f 472/1/6 471/1/6 473/1/6
f 474/1/6 475/1/6 476/1/6
f 476/1/6 475/1/6 477/1/6
f 478/1/6 479/1/6 480/1/6
f 480/1/6 479/1/6 481/1/6
f 482/1/6 483/1/6 484/1/6
f 484/1/6 483/1/6 485/1/6
f 486/1/6 487/1/6 488/1/6
f 488/1/6 487/1/6 489/1/6
f 490/1/6 491/1/6 492/1/6
f 492/1/6 491/1/6 493/1/6
f 494/1/6 495/1/6 496/1/6
f 496/1/6 495/1/6 497/1/6
f 498/1/6 499/1/6 500/1/6
f 500/1/6 499/1/6 501/1/6
f 502/1/6 503/1/6 504/1/6
f 504/1/6 503/1/6 505/1/6
f 506/1/6 507/1/6 508/1/6
f 508/1/6 507/1/6 509/1/6
f 510/1/6 511/1/6 512/1/6
f 512/1/6 511/1/6 513/1/6
f 514/3/6 515/3/6 518/3/6
f 518/3/6 515/3/6 519/3/6
f 516/3/6 517/3/6 520/3/6
f 520/3/6 517/3/6 521/3/6
f 520/1/6 521/1/6 522/1/6
f 522/1/6 521/1/6 523/1/6
f 522/2/6 523/2/6 524/2/6
f 524/2/6 523/2/6 525/2/6
f 518/1/6 519/1/6 526/1/6
f 518/1/6 526/1/6 527/1/6
f 527/1/6 526/1/6 528/1/6
f 524/1/6 525/1/6 529/1/6
f 529/1/6 525/1/6 530/1/6
f 527/3/6 528/3/6 531/3/6
f 531/3/6 528/3/6 532/3/6
f 529/3/6 530/3/6 533/3/6
f 533/3/6 530/3/6 534/3/6
f 535/3/6 536/3/6 539/3/6
f 539/3/6 536/3/6 540/3/6
f 537/3/6 538/3/6 541/3/6
f 541/3/6 538/3/6 542/3/6
f 539/1/6 540/1/6 543/1/6
f 543/1/6 540/1/6 544/1/6
f 543/2/6 544/2/6 545/2/6
f 545/2/6 544/2/6 546/2/6
f 541/1/6 542/1/6 547/1/6
f 547/1/6 542/1/6 548/1/6
f 545/3/6 546/3/6 549/3/6
f 549/3/6 546/3/6 550/3/6
f 547/3/6 548/3/6 551/3/6
f 551/3/6 548/3/6 552/3/6
f 553/3/6 554/3/6 555/3/6
f 555/3/6 554/3/6 556/3/6
f 555/1/6 556/1/6 557/1/6
f 557/1/6 556/1/6 558/1/6
f 555/1/6 557/1/6 559/1/6
f 558/1/6 556/1/6 560/1/6
f 559/1/6 560/1/6 561/1/6
f 561/1/6 560/1/6 562/1/6
f 555/1/6 559/1/6 563/1/6
f 559/1/6 561/1/6 563/1/6
f 561/2/6 562/2/6 564/2/6
f 563/1/6 561/1/6 564/1/6
f 562/1/6 560/1/6 565/1/6
f 564/2/6 562/2/6 565/2/6
f 560/1/6 556/1/6 566/1/6
f 565/1/6 560/1/6 566/1/6
f 563/3/6 564/3/6 567/3/6
f 564/3/6 565/3/6 567/3/6
f 565/3/6 566/3/6 567/3/6
f 567/3/6 566/3/6 568/3/6
f 569/1/6 570/1/6 571/1/6
f 571/1/6 570/1/6 572/1/6
